PathFileType	4	(x/y/z)	S05_BK_Cal_T01
DataRate	CameraRate	NumFrames	NumMarkers	Units	OrigDataRate	OrigDataStartFrame	OrigNumFrames
240	240	5	50	mm	240	2101	2400
Frame#	Time	Sternum			R.Acromium			L.Acromium			Top.Head			R.ASIS			L.ASIS			R.PSIS			L.PSIS			R.Great.Tro			L.Great.Tro			R.Iliac.Crest			L.Iliac.Crest			V.Sacral			R.Thigh.Upper.Post			R.Thigh.Lower.Ant			R.Thigh.Lower.Post			R.Thigh.Upper.Ant			R.Knee.Lat			R.Knee.Med			R.Shank.Upper.Post			R.Shank.Lower.Ant			R.Shank.Lower.Post			R.Shank.Upper.Ant			R.Ankle.Lat			R.Ankle.Med			R.Heel.Upper			R.Heel.Med			R.Heel.Lat			R.Toe.Lat			R.Toe.Med			R.Toe.Tip			L.Thigh.Upper.Post			L.Thigh.Lower.Ant			L.Thigh.Lower.Post			L.Thigh.Upper.Ant			L.Knee.Lat			L.Shank.Upper.Post			L.Shank.Lower.Ant			L.Shank.Lower.Post			L.Shank.Upper.Ant			L.Ankle.Lat			L.Ankle.Med			L.Heel.Upper			L.Heel.Med			L.Heel.Lat			L.Toe.Lat			L.Toe.Med			L.Toe.Tip			Cervical.Spine			Back			
		X1	Y1	Z1	X2	Y2	Z2	X3	Y3	Z3	X4	Y4	Z4	X5	Y5	Z5	X6	Y6	Z6	X7	Y7	Z7	X8	Y8	Z8	X9	Y9	Z9	X10	Y10	Z10	X11	Y11	Z11	X12	Y12	Z12	X13	Y13	Z13	X14	Y14	Z14	X15	Y15	Z15	X16	Y16	Z16	X17	Y17	Z17	X18	Y18	Z18	X19	Y19	Z19	X20	Y20	Z20	X21	Y21	Z21	X22	Y22	Z22	X23	Y23	Z23	X24	Y24	Z24	X25	Y25	Z25	X26	Y26	Z26	X27	Y27	Z27	X28	Y28	Z28	X29	Y29	Z29	X30	Y30	Z30	X31	Y31	Z31	X32	Y32	Z32	X33	Y33	Z33	X34	Y34	Z34	X35	Y35	Z35	X36	Y36	Z36	X37	Y37	Z37	X38	Y38	Z38	X39	Y39	Z39	X40	Y40	Z40	X41	Y41	Z41	X42	Y42	Z42	X43	Y43	Z43	X44	Y44	Z44	X45	Y45	Z45	X46	Y46	Z46	X47	Y47	Z47	X48	Y48	Z48	X49	Y49	Z49	X50	Y50	Z50	

2101	8.75	513.38	1241.6	324.26	426.49	1497.4	481.38	411.06	1504.8	141.19	429.03	1818.7	316.46	436.54	989.93	453.67	448.57	991.15	203.9	239.79	1014.6	358.7	245.17	1015.3	266.18	355.2	912.63	514.88	365.95	914.08	124.4	356.23	1078.2	487.51	368.1	1072.8	154.8	229.85	976.8	324.6	448.35	704.58	531.35	515.55	642.42	485.77	455.61	614.95	516.64	504.02	730.67	500.17	465.76	519.68	506.07	470.88	494.9	378.15	348.16	299.31	516.72	395.9	222.38	514.54	332.14	224.28	505.14	413.44	298.3	524.31	355.35	123.62	506.7	361.32	143.43	412.81	273.36	75.28	455.89	281.44	41.495	428.94	283.57	48.888	493.96	451.99	36.871	534.6	478.9	40.825	412.69	545.96	57.359	453.65	418.18	680.35	113.18	511.66	624.31	132.68	447.98	589.99	124.37	489.78	712.22	121.76	471.33	504.19	125.07	369.71	327.76	117.33	422.78	256.33	119.54	352.33	257.25	131.78	435.33	326.13	109.62	345.77	118.06	134.9	381.89	125.52	222.64	278.75	68.545	186.39	291.12	43.646	218.29	281.36	41.089	157.41	462.31	39.187	98.108	488.45	50.915	216.7	551.24	59.852	159.76	366.03	1551.3	319.25	253.31	1278.6	321.17
2102	8.7542	513.43	1241.6	324.25	426.54	1497.4	481.36	411.12	1504.8	141.18	429.07	1818.7	316.46	436.56	989.93	453.66	448.6	991.14	203.9	239.81	1014.6	358.69	245.2	1015.3	266.17	355.21	912.62	514.87	365.98	914.08	124.39	356.25	1078.2	487.51	368.13	1072.8	154.79	229.87	976.8	324.59	448.36	704.58	531.35	515.56	642.41	485.78	455.61	614.95	516.65	504.03	730.66	500.18	465.78	519.67	506.08	470.9	494.9	378.15	348.17	299.31	516.72	395.91	222.38	514.54	332.15	224.28	505.14	413.45	298.3	524.31	355.35	123.62	506.7	361.32	143.43	412.81	273.36	75.283	455.89	281.45	41.498	428.94	283.57	48.891	493.96	451.99	36.871	534.6	478.9	40.825	412.69	545.96	57.357	453.65	418.2	680.35	113.17	511.68	624.31	132.67	448	589.99	124.36	489.8	712.22	121.75	471.34	504.19	125.06	369.72	327.76	117.32	422.79	256.33	119.53	352.34	257.25	131.78	435.34	326.13	109.61	345.77	118.06	134.89	381.89	125.52	222.64	278.75	68.545	186.4	291.12	43.647	218.29	281.36	41.09	157.41	462.31	39.184	98.107	488.45	50.913	216.7	551.25	59.849	159.75	366.09	1551.3	319.23	253.35	1278.6	321.16
2103	8.7583	513.47	1241.6	324.24	426.58	1497.4	481.34	411.18	1504.8	141.17	429.12	1818.7	316.45	436.57	989.92	453.66	448.62	991.14	203.9	239.83	1014.7	358.68	245.22	1015.3	266.16	355.22	912.62	514.87	366	914.08	124.39	356.27	1078.2	487.5	368.16	1072.8	154.79	229.88	976.8	324.58	448.36	704.57	531.35	515.58	642.41	485.78	455.62	614.95	516.65	504.04	730.66	500.18	465.79	519.67	506.08	470.92	494.89	378.15	348.18	299.31	516.72	395.92	222.38	514.54	332.16	224.28	505.14	413.47	298.3	524.31	355.36	123.62	506.71	361.33	143.43	412.81	273.36	75.286	455.89	281.45	41.501	428.94	283.57	48.893	493.95	451.99	36.87	534.6	478.9	40.824	412.69	545.96	57.356	453.65	418.22	680.36	113.16	511.69	624.31	132.66	448.02	590	124.34	489.82	712.22	121.74	471.35	504.19	125.05	369.73	327.76	117.31	422.8	256.33	119.52	352.35	257.25	131.77	435.34	326.13	109.6	345.77	118.06	134.89	381.89	125.51	222.64	278.75	68.545	186.4	291.12	43.649	218.29	281.36	41.091	157.41	462.31	39.182	98.105	488.45	50.912	216.7	551.25	59.844	159.75	366.14	1551.3	319.22	253.39	1278.6	321.14
2104	8.7625	513.52	1241.6	324.24	426.62	1497.4	481.33	411.24	1504.8	141.16	429.16	1818.7	316.44	436.58	989.91	453.66	448.65	991.13	203.9	239.85	1014.7	358.67	245.24	1015.3	266.16	355.22	912.61	514.86	366.02	914.08	124.39	356.29	1078.2	487.5	368.19	1072.8	154.78	229.9	976.81	324.57	448.37	704.57	531.35	515.59	642.4	485.79	455.64	614.94	516.65	504.05	730.65	500.18	465.81	519.66	506.08	470.94	494.88	378.16	348.19	299.31	516.72	395.93	222.38	514.55	332.17	224.28	505.14	413.48	298.3	524.31	355.36	123.63	506.71	361.33	143.44	412.81	273.36	75.289	455.89	281.45	41.504	428.94	283.57	48.896	493.95	451.99	36.87	534.6	478.9	40.823	412.69	545.96	57.354	453.65	418.24	680.36	113.15	511.71	624.31	132.65	448.03	590	124.33	489.84	712.22	121.73	471.36	504.19	125.04	369.74	327.77	117.3	422.81	256.32	119.51	352.36	257.25	131.76	435.35	326.13	109.58	345.77	118.06	134.89	381.89	125.51	222.64	278.75	68.545	186.4	291.12	43.651	218.29	281.36	41.091	157.41	462.31	39.179	98.104	488.45	50.91	216.7	551.25	59.84	159.75	366.19	1551.3	319.21	253.44	1278.6	321.13
2105	8.7667	513.56	1241.6	324.23	426.67	1497.3	481.31	411.3	1504.8	141.15	429.22	1818.7	316.43	436.6	989.9	453.66	448.67	991.12	203.9	239.87	1014.7	358.66	245.26	1015.3	266.15	355.23	912.6	514.86	366.05	914.08	124.39	356.31	1078.2	487.49	368.23	1072.8	154.78	229.91	976.81	324.57	448.38	704.57	531.35	515.6	642.4	485.8	455.65	614.94	516.66	504.06	730.65	500.18	465.83	519.65	506.08	470.96	494.88	378.16	348.2	299.3	516.71	395.94	222.38	514.55	332.19	224.28	505.14	413.49	298.29	524.31	355.37	123.63	506.71	361.34	143.44	412.81	273.36	75.292	455.88	281.45	41.507	428.94	283.57	48.898	493.95	451.99	36.87	534.61	478.9	40.822	412.69	545.96	57.353	453.65	418.26	680.36	113.14	511.73	624.31	132.64	448.05	590	124.32	489.86	712.22	121.73	471.37	504.19	125.03	369.75	327.77	117.3	422.82	256.32	119.51	352.37	257.25	131.76	435.36	326.12	109.57	345.77	118.06	134.88	381.89	125.51	222.63	278.75	68.544	186.4	291.12	43.652	218.29	281.36	41.092	157.41	462.31	39.177	98.102	488.45	50.909	216.7	551.25	59.836	159.75	366.24	1551.3	319.19	253.48	1278.6	321.11
